<svg width="800" height="800" viewBox="0 0 800 800" fill="none" xmlns="http://www.w3.org/2000/svg">
<path d="M226.749 730.184L303.917 767.337C308.275 769.438 313.179 770.131 317.948 769.321C322.718 768.51 327.118 766.236 330.537 762.813L583.148 532.512C586.213 529.731 588.047 525.847 588.248 521.713C588.449 517.579 586.999 513.535 584.218 510.47C583.884 510.108 583.549 509.761 583.188 509.439L562.564 490.703C559.869 488.25 556.4 486.819 552.76 486.657C549.119 486.496 545.538 487.615 542.636 489.819L238.365 720.548C236.067 722.292 233.328 723.36 230.456 723.632C227.583 723.903 224.692 723.368 222.108 722.085C219.524 720.803 217.349 718.824 215.828 716.373C214.307 713.921 213.5 711.094 213.499 708.209V709.106C213.499 713.51 214.743 717.825 217.087 721.554C219.431 725.283 222.78 728.275 226.749 730.184Z" fill="#007ACC"/>
<path d="M226.749 436.554L303.917 399.388C308.276 397.293 313.179 396.603 317.947 397.413C322.715 398.223 327.114 400.494 330.537 403.912L583.148 634.226C586.213 637.007 588.047 640.892 588.248 645.025C588.449 649.159 586.999 653.203 584.218 656.268C583.884 656.63 583.549 656.977 583.188 657.299L562.564 676.035C559.866 678.498 556.39 679.936 552.74 680.098C549.091 680.259 545.501 679.134 542.596 676.919L238.365 446.19C236.067 444.446 233.328 443.378 230.456 443.106C227.583 442.835 224.692 443.37 222.108 444.653C219.524 445.935 217.349 447.914 215.828 450.365C214.307 452.817 213.5 455.644 213.499 458.529V457.565C213.514 453.173 214.764 448.873 217.107 445.157C219.45 441.441 222.791 438.46 226.749 436.554Z" fill="#0065A9"/>
<path d="M303.917 399.388C308.276 397.293 313.179 396.603 317.947 397.413C322.715 398.223 327.114 400.494 330.537 403.912C328.615 402.015 326.176 400.727 323.525 400.211C320.875 399.694 318.131 399.971 315.637 401.007C313.144 402.043 311.011 403.792 309.507 406.035C308.003 408.277 307.195 410.914 307.183 413.614L307.183 753.124C307.18 755.836 307.984 758.489 309.49 760.745C310.997 763.001 313.139 764.76 315.646 765.797C318.152 766.835 320.911 767.105 323.571 766.574C326.231 766.043 328.674 764.734 330.59 762.813C327.17 766.235 322.772 768.509 318.003 769.322C313.234 770.135 308.331 769.446 303.971 767.35L226.816 730.251C222.834 728.351 219.472 725.364 217.115 721.634C214.759 717.904 213.506 713.584 213.499 709.173L213.499 457.565C213.498 453.157 214.743 448.838 217.089 445.107C219.436 441.375 222.789 438.382 226.762 436.473L303.917 399.388Z" fill="#1F9CF0"/>
<path d="M225.016 362.949L302.185 400.101C306.543 402.203 311.446 402.896 316.216 402.085C320.986 401.275 325.385 399.001 328.804 395.578L581.415 165.277C584.48 162.496 586.315 158.611 586.515 154.478C586.716 150.344 585.267 146.3 582.486 143.235C582.151 142.873 581.817 142.525 581.455 142.204L560.831 123.467C558.137 121.015 554.668 119.583 551.027 119.422C547.387 119.261 543.805 120.379 540.904 122.584L236.633 353.313C234.335 355.057 231.595 356.125 228.723 356.396C225.851 356.668 222.96 356.132 220.376 354.85C217.791 353.568 215.616 351.589 214.095 349.138C212.574 346.686 211.768 343.859 211.767 340.974V341.87C211.767 346.275 213.011 350.59 215.354 354.319C217.698 358.048 221.047 361.039 225.016 362.949Z" fill="#007ACC"/>
<path d="M225.016 69.3183L302.185 32.1527C306.544 30.0574 311.446 29.3673 316.214 30.1776C320.983 30.9878 325.382 33.2586 328.804 36.6763L581.415 266.991C584.48 269.772 586.315 273.656 586.515 277.79C586.716 281.924 585.267 285.968 582.486 289.033C582.151 289.394 581.817 289.742 581.455 290.063L560.831 308.8C558.134 311.263 554.657 312.701 551.008 312.862C547.358 313.024 543.768 311.899 540.864 309.683L236.633 78.9543C234.335 77.2103 231.595 76.1425 228.723 75.871C225.851 75.5995 222.96 76.1351 220.376 77.4175C217.791 78.6999 215.616 80.6783 214.095 83.1298C212.574 85.5813 211.768 88.4087 211.767 91.2938V90.3302C211.781 85.9374 213.031 81.6374 215.374 77.9217C217.717 74.206 221.059 71.2245 225.016 69.3183Z" fill="#0065A9"/>
<path d="M302.185 32.1527C306.544 30.0574 311.446 29.3673 316.214 30.1776C320.983 30.9879 325.382 33.2586 328.804 36.6763C326.882 34.7794 324.443 33.492 321.793 32.9753C319.142 32.4586 316.398 32.7357 313.905 33.7717C311.411 34.8078 309.279 36.5567 307.775 38.7995C306.271 41.0422 305.462 43.6789 305.45 46.3792L305.45 385.888C305.448 388.601 306.251 391.254 307.758 393.51C309.264 395.766 311.406 397.525 313.913 398.562C316.42 399.6 319.178 399.87 321.838 399.339C324.499 398.808 326.942 397.499 328.858 395.578C325.438 398.999 321.039 401.274 316.271 402.087C311.502 402.899 306.598 402.21 302.238 400.115L225.083 363.016C221.102 361.116 217.739 358.128 215.383 354.399C213.027 350.669 211.773 346.349 211.767 341.937L211.767 90.3302C211.766 85.922 213.01 81.6032 215.357 77.8715C217.703 74.1398 221.056 71.147 225.03 69.238L302.185 32.1527Z" fill="#1F9CF0"/>
</svg>
